<svg xmlns="http://www.w3.org/2000/svg" width="44" height="44" viewBox="0 0 44 44">
  <metadata><?xpacket begin="﻿" id="W5M0MpCehiHzreSzNTczkc9d"?>
<x:xmpmeta xmlns:x="adobe:ns:meta/" x:xmptk="Adobe XMP Core 5.6-c140 79.160451, 2017/05/06-01:08:21        ">
   <rdf:RDF xmlns:rdf="http://www.w3.org/1999/02/22-rdf-syntax-ns#">
      <rdf:Description rdf:about=""/>
   </rdf:RDF>
</x:xmpmeta>
                                                                                                    
                                                                                                    
                                                                                                    
                                                                                                    
                                                                                                    
                                                                                                    
                                                                                                    
                                                                                                    
                                                                                                    
                                                                                                    
                                                                                                    
                                                                                                    
                                                                                                    
                                                                                                    
                                                                                                    
                                                                                                    
                                                                                                    
                                                                                                    
                                                                                                    
                                                                                                    
                           
<?xpacket end="w"?></metadata>
<defs>
    <style>
      .cls-1 {
        fill: #fff;
        fill-rule: evenodd;
      }
    </style>
  </defs>
  <path class="cls-1" d="M11.273,12.833A3.667,3.667,0,1,0,14.909,16.5,3.652,3.652,0,0,0,11.273,12.833Zm0,5.5A1.833,1.833,0,1,1,13.091,16.5,1.826,1.826,0,0,1,11.273,18.333Zm10.909-5.5A3.667,3.667,0,1,0,25.818,16.5,3.652,3.652,0,0,0,22.182,12.833Zm0,5.5A1.833,1.833,0,1,1,24,16.5,1.826,1.826,0,0,1,22.182,18.333Zm10.909-5.5A3.667,3.667,0,1,0,36.727,16.5,3.652,3.652,0,0,0,33.091,12.833Zm0,5.5A1.833,1.833,0,1,1,34.909,16.5,1.826,1.826,0,0,1,33.091,18.333ZM38.545,0H5.818A5.478,5.478,0,0,0,.364,5.5v22A5.477,5.477,0,0,0,5.818,33H16.727L13.091,44,29.454,33h9.091A5.477,5.477,0,0,0,44,27.5V5.5A5.478,5.478,0,0,0,38.545,0Zm3.636,27.5a3.652,3.652,0,0,1-3.636,3.667h-10L15.818,40.333l3.636-9.166H5.818A3.652,3.652,0,0,1,2.182,27.5V5.5A3.652,3.652,0,0,1,5.818,1.833H38.545A3.652,3.652,0,0,1,42.181,5.5v22Z"/>
</svg>
