<svg xmlns="http://www.w3.org/2000/svg" width="45" height="44" viewBox="0 0 45 44">
  <metadata><?xpacket begin="﻿" id="W5M0MpCehiHzreSzNTczkc9d"?>
<x:xmpmeta xmlns:x="adobe:ns:meta/" x:xmptk="Adobe XMP Core 5.6-c140 79.160451, 2017/05/06-01:08:21        ">
   <rdf:RDF xmlns:rdf="http://www.w3.org/1999/02/22-rdf-syntax-ns#">
      <rdf:Description rdf:about=""/>
   </rdf:RDF>
</x:xmpmeta>
                                                                                                    
                                                                                                    
                                                                                                    
                                                                                                    
                                                                                                    
                                                                                                    
                                                                                                    
                                                                                                    
                                                                                                    
                                                                                                    
                                                                                                    
                                                                                                    
                                                                                                    
                                                                                                    
                                                                                                    
                                                                                                    
                                                                                                    
                                                                                                    
                                                                                                    
                                                                                                    
                           
<?xpacket end="w"?></metadata>
<defs>
    <style>
      .cls-1 {
        fill: #fff;
        fill-rule: evenodd;
      }
    </style>
  </defs>
  <path class="cls-1" d="M20.273,26.886a4.525,4.525,0,0,0,6.209-1.678L30.273,9.421l-11.664,11.2A4.6,4.6,0,0,0,20.273,26.886Zm-0.2-5.139,6.974-6.7-2.266,9.439a2.716,2.716,0,0,1-3.6.811A2.765,2.765,0,0,1,20.077,21.747ZM22.546,0A22,22,0,1,0,44.364,22,21.91,21.91,0,0,0,22.546,0Zm0,42.167A20.074,20.074,0,0,1,2.569,22.917H6.182V21.083H2.589a20.151,20.151,0,0,1,5.2-12.668l2.544,2.566,1.286-1.3L9.074,7.12A19.82,19.82,0,0,1,21.636,1.857V5.5h1.818V1.857A19.821,19.821,0,0,1,36.017,7.12L33.474,9.685l1.285,1.3L37.3,8.416a20.151,20.151,0,0,1,5.2,12.668H38.909v1.833h3.613A20.073,20.073,0,0,1,22.546,42.167Z"/>
</svg>
