<svg xmlns="http://www.w3.org/2000/svg" width="44" height="41" viewBox="0 0 44 41">
  <metadata><?xpacket begin="﻿" id="W5M0MpCehiHzreSzNTczkc9d"?>
<x:xmpmeta xmlns:x="adobe:ns:meta/" x:xmptk="Adobe XMP Core 5.6-c140 79.160451, 2017/05/06-01:08:21        ">
   <rdf:RDF xmlns:rdf="http://www.w3.org/1999/02/22-rdf-syntax-ns#">
      <rdf:Description rdf:about=""/>
   </rdf:RDF>
</x:xmpmeta>
                                                                                                    
                                                                                                    
                                                                                                    
                                                                                                    
                                                                                                    
                                                                                                    
                                                                                                    
                                                                                                    
                                                                                                    
                                                                                                    
                                                                                                    
                                                                                                    
                                                                                                    
                                                                                                    
                                                                                                    
                                                                                                    
                                                                                                    
                                                                                                    
                                                                                                    
                                                                                                    
                           
<?xpacket end="w"?></metadata>
<defs>
    <style>
      .cls-1 {
        fill: #fff;
        fill-rule: evenodd;
      }
    </style>
  </defs>
  <path class="cls-1" d="M40,5.5H3.636A3.652,3.652,0,0,0,0,9.167v27.5a3.652,3.652,0,0,0,3.636,3.666H40a3.652,3.652,0,0,0,3.636-3.666V9.167A3.652,3.652,0,0,0,40,5.5Zm1.818,31.167A1.826,1.826,0,0,1,40,38.5H3.636a1.826,1.826,0,0,1-1.818-1.833V29.333h40v7.333Zm0-9.167h-40V18.333h40V27.5Zm0-11h-40V9.167A1.826,1.826,0,0,1,3.636,7.333H40a1.826,1.826,0,0,1,1.818,1.833V16.5ZM18.182,1.833h7.273a1.826,1.826,0,0,1,1.818,1.833h1.818A3.652,3.652,0,0,0,25.455,0H18.182a3.652,3.652,0,0,0-3.636,3.667h1.818A1.826,1.826,0,0,1,18.182,1.833Z"/>
</svg>
