<svg xmlns="http://www.w3.org/2000/svg" width="47" height="33" viewBox="0 0 47 33">
  <metadata><?xpacket begin="﻿" id="W5M0MpCehiHzreSzNTczkc9d"?>
<x:xmpmeta xmlns:x="adobe:ns:meta/" x:xmptk="Adobe XMP Core 5.6-c140 79.160451, 2017/05/06-01:08:21        ">
   <rdf:RDF xmlns:rdf="http://www.w3.org/1999/02/22-rdf-syntax-ns#">
      <rdf:Description rdf:about=""/>
   </rdf:RDF>
</x:xmpmeta>
                                                                                                    
                                                                                                    
                                                                                                    
                                                                                                    
                                                                                                    
                                                                                                    
                                                                                                    
                                                                                                    
                                                                                                    
                                                                                                    
                                                                                                    
                                                                                                    
                                                                                                    
                                                                                                    
                                                                                                    
                                                                                                    
                                                                                                    
                                                                                                    
                                                                                                    
                                                                                                    
                           
<?xpacket end="w"?></metadata>
<defs>
    <style>
      .cls-1 {
        fill: #fff;
        fill-rule: evenodd;
      }
    </style>
  </defs>
  <path class="cls-1" d="M43.213,20.486a12.153,12.153,0,0,0,.43-3.161A12.484,12.484,0,0,0,31.054,4.95a12.726,12.726,0,0,0-5.024,1.031A10.1,10.1,0,0,0,6.714,9.9a9.6,9.6,0,0,0,.11,1.075A11.533,11.533,0,0,0,0,21.45,11.651,11.651,0,0,0,11.75,33H40.286A6.658,6.658,0,0,0,47,26.4,6.573,6.573,0,0,0,43.213,20.486ZM40.286,31.35H11.75A9.867,9.867,0,0,1,7.53,12.473l1.094-.5L8.493,10.8c-0.014-.123-0.03-0.245-0.047-0.367A3.867,3.867,0,0,1,8.393,9.9a8.414,8.414,0,0,1,16.1-3.264l0.668,1.52L26.7,7.494A10.982,10.982,0,0,1,31.054,6.6,10.831,10.831,0,0,1,41.964,17.325a10.6,10.6,0,0,1-.375,2.739l-0.352,1.31,1.238,0.594A4.907,4.907,0,0,1,45.321,26.4,5,5,0,0,1,40.286,31.35Z"/>
</svg>
